# xmcd
#
# Track frame offsets:
#	150
#	16203
#	33546
#	50788
#	68188
#	92100
#	114714
#	130719
#	145741
#	161396
#	186255
#	202464
#	216216
#	245916
#
# Disc length: 3569 seconds
#
# Revision: 0
# Processed by: cddbd v1.5.2PL0 Copyright (c) Steve Scherf et al.
# Submitted via: dBpowerAMP V4.0
#
DISCID=d90def0e
DTITLE=Hip Pocket Band, The - Returns
DYEAR=2007
DGENRE=Blues
TTITLE0=Voodoo Love
TTITLE1=Gonna Boogie
TTITLE2=Fishin' Hole
TTITLE3=Rockin' Away The Heartache
TTITLE4=Anniversary
TTITLE5=Dock of the Bay
TTITLE6=Blue
TTITLE7=Lonesome Whistle
TTITLE8=Rat Race
TTITLE9=Unfinished Business
TTITLE10=Big Bull Frog
TTITLE11=Huge Down Under
TTITLE12=Have You Ever Loved A Woman
TTITLE13=Eat My Baby's Cookin'
EXTD=
EXTT0=
EXTT1=
EXTT2=
EXTT3=
EXTT4=
EXTT5=
EXTT6=
EXTT7=
EXTT8=
EXTT9=
EXTT10=
EXTT11=
EXTT12=
EXTT13=
PLAYORDER=
